<svg width="737" height="169" viewBox="0 0 737 169" fill="none" xmlns="http://www.w3.org/2000/svg">
<path d="M105.464 169C105.364 169 105.265 169 105.165 168.992C83.9849 167.313 64.2775 161.894 48.1887 153.345C46.3586 152.376 45.6681 150.097 46.6331 148.268C47.5981 146.431 49.8692 145.738 51.691 146.707C66.8896 154.789 85.5821 159.907 105.755 161.51C107.818 161.677 109.357 163.481 109.191 165.552C109.033 167.505 107.394 169 105.464 169ZM146.767 167.831C144.904 167.831 143.298 166.437 143.057 164.541C142.799 162.479 144.255 160.6 146.31 160.35C164.395 158.079 182.497 153.612 201.647 146.698C203.594 145.997 205.74 147.007 206.439 148.961C207.138 150.915 206.131 153.069 204.184 153.77C184.502 160.876 165.876 165.468 147.242 167.806C147.075 167.823 146.926 167.831 146.767 167.831ZM240.954 137.681C239.573 137.681 238.242 136.904 237.585 135.577C236.678 133.715 237.443 131.46 239.298 130.55C254.605 123.036 270.619 114.135 289.694 102.546C291.466 101.469 293.762 102.037 294.835 103.815C295.908 105.594 295.343 107.898 293.571 108.975C274.304 120.681 258.099 129.682 242.593 137.305C242.069 137.564 241.511 137.681 240.954 137.681ZM18.715 127.11C17.5503 127.11 16.394 126.559 15.6619 125.532C5.51291 111.255 0.363525 94.2549 0.363525 75.0009C0.363525 72.7215 0.438397 70.3753 0.579818 68.0374C0.704601 65.9667 2.48484 64.397 4.54792 64.5223C6.611 64.6475 8.18327 66.4343 8.05017 68.505C7.91706 70.6926 7.84219 72.8718 7.84219 75.0009C7.84219 92.6602 12.5174 108.19 21.7514 121.174C22.9493 122.86 22.5583 125.207 20.8779 126.417C20.229 126.877 19.4637 127.11 18.715 127.11ZM733.257 98.5466C731.817 98.5466 730.436 97.7033 729.821 96.2922C722.783 80.1442 711.095 65.5325 695.065 52.8496C693.442 51.5638 693.16 49.2009 694.441 47.5727C695.722 45.9445 698.076 45.6607 699.698 46.9465C716.702 60.3976 729.147 75.9862 736.684 93.278C737.516 95.1817 736.651 97.3944 734.754 98.2293C734.263 98.4464 733.756 98.5466 733.257 98.5466ZM326.771 87.5085C325.532 87.5085 324.326 86.8906 323.61 85.7635C322.504 84.0101 323.019 81.6889 324.758 80.5784L329.558 77.5141C335.223 73.8988 340.872 70.2918 346.495 66.7349C355.729 60.8986 365.138 55.3378 374.463 50.2279C376.277 49.2343 378.548 49.9022 379.546 51.7224C380.536 53.5426 379.871 55.8304 378.057 56.824C368.865 61.8671 359.598 67.3444 350.488 73.0972C344.873 76.6458 339.233 80.2444 333.576 83.8598L328.776 86.924C328.152 87.3165 327.462 87.5085 326.771 87.5085ZM413.396 38.9476C411.957 38.9476 410.576 38.1043 409.96 36.6933C409.128 34.7896 409.993 32.5769 411.89 31.742C430.283 23.668 448.809 17.0552 466.953 12.0705C468.949 11.5194 471.004 12.7051 471.553 14.7006C472.102 16.7045 470.921 18.7668 468.933 19.3179C451.138 24.2024 432.953 30.6983 414.893 38.6304C414.411 38.8474 413.895 38.9476 413.396 38.9476ZM662.105 32.076C661.573 32.076 661.024 31.9591 660.508 31.7169C643.987 23.8934 625.793 17.8066 606.427 13.6319C604.405 13.1977 603.116 11.2021 603.549 9.17321C603.981 7.14427 605.969 5.85009 607.991 6.28427C627.915 10.5759 646.657 16.8464 663.694 24.9204C665.566 25.8055 666.364 28.0431 665.483 29.9218C664.85 31.2828 663.511 32.076 662.105 32.076ZM508.422 10.9183C506.592 10.9183 504.995 9.57399 504.72 7.70369C504.421 5.64971 505.843 3.74601 507.89 3.44543C522.423 1.32465 536.956 0.247559 551.081 0.247559C556.206 0.247559 561.364 0.389501 566.421 0.665035C568.484 0.781929 570.065 2.55203 569.957 4.62271C569.841 6.6934 568.069 8.29651 566.014 8.17127C561.097 7.89573 556.073 7.76214 551.081 7.76214C537.314 7.76214 523.147 8.81418 508.971 10.8849C508.78 10.9016 508.597 10.9183 508.422 10.9183Z" fill="#B71F74"/>
</svg>
