<svg width="115" height="70" viewBox="0 0 115 70" fill="none" xmlns="http://www.w3.org/2000/svg">
<path opacity="0.89" d="M0.308231 3.2476L39.3154 68.2988C39.357 68.3656 39.3986 68.424 39.4402 68.4825C40.1473 69.426 41.4867 69.618 42.435 68.9083L66.8925 50.3807L83.9795 63.097C84.5368 63.573 85.3271 63.7483 86.0675 63.4895C86.8495 63.2139 87.3736 62.5293 87.4817 61.7611L94.428 29.5236L113.927 14.7533C114.427 14.4109 114.784 13.8515 114.843 13.1919C114.959 12.0146 114.094 10.9626 112.921 10.8457L2.34636 0.00798211C1.90545 -0.0337655 1.44792 0.0580793 1.04029 0.308565C0.025389 0.909731 -0.299047 2.22896 0.308231 3.2476ZM89.9691 29.891L84.8779 53.5285L79.7618 38.7665C79.5954 38.2822 79.2544 37.8564 78.7719 37.5892L45.7293 19.3956L89.9691 29.891ZM6.1564 4.69207L107.048 14.5779L92.0072 25.9667L31.3959 11.5971C30.2479 11.3216 29.0999 12.0397 28.8253 13.1835C28.6007 14.1437 29.0499 15.1039 29.8735 15.5548L73.8221 39.7517L65.678 45.9221C65.6197 45.9638 65.5698 45.9972 65.5199 46.0473L41.7529 64.0489L6.1564 4.69207Z" fill="#B71E74"/>
</svg>
